<svg width="165" height="35" viewBox="0 0 165 35" fill="none" xmlns="http://www.w3.org/2000/svg">
<path fill-rule="evenodd" clip-rule="evenodd" d="M34.1983 19.8563C34.4335 19.9178 34.5921 20.1304 34.5921 20.3673H34.5958C34.5958 20.3971 34.5939 20.4288 34.5883 20.4605L34.5865 20.4792V20.4848L34.5753 20.5072V20.5314L34.5734 20.5407V20.5557L34.5641 20.5687L34.5603 20.578V20.6023L34.5566 20.6265V20.6508L34.5491 20.6638L34.5454 20.6732V20.6974L34.5417 20.7217L34.5379 20.7254L34.5324 20.744L34.5305 20.759V20.7683L34.5249 20.7869L34.5286 20.7925L34.5174 20.8149L34.5212 20.8205L34.5137 20.8392V20.8634L34.51 20.882L34.5025 20.8858V20.91L34.4969 20.9287V20.9436L34.4894 20.9567V20.9716V20.9809L34.482 20.9995V21.0089L34.4745 21.0275V21.0518L34.4689 21.0704L34.4614 21.0984V21.1226L34.4577 21.132L34.4502 21.145L34.4484 21.1599V21.1693L34.4428 21.1879L34.4335 21.214V21.2401L34.426 21.2513L34.4204 21.2607V21.2849L34.4185 21.3129H34.4129L34.4092 21.3315L34.4073 21.3483V21.3576L34.4017 21.3744L34.3961 21.3782L34.3924 21.4024V21.4117L34.3849 21.4304V21.4397L34.3812 21.449L34.3756 21.4677L34.3793 21.4733L34.3681 21.4957L34.3719 21.5013L34.3681 21.5199L34.3588 21.533L34.3551 21.5423V21.5665L34.3476 21.5945L34.3402 21.6132V21.6225L34.3346 21.6411L34.329 21.6598L34.3215 21.6878L34.3178 21.7064V21.7213L34.3103 21.7344V21.7493L34.3066 21.7586L34.2954 21.781V21.8053L34.2916 21.8146L34.2842 21.8276L34.2823 21.8426V21.8519L34.2711 21.8743L34.2674 21.8985V21.9078L34.2599 21.919V21.934L34.2562 21.9433L34.2487 21.9713C34.1312 22.4077 33.995 22.8311 33.8457 23.2544L33.7804 23.4409C30.6679 31.8804 21.5526 36.7408 12.7005 34.4076C10.299 33.7735 8.16243 32.6824 6.33751 31.2444C6.30766 31.2221 6.27966 31.1959 6.25541 31.168C5.87848 30.7297 5.71428 30.1254 5.87288 29.5267C6.13039 28.5792 7.12495 28.0067 8.07473 28.2566C9.53765 28.6427 11.092 27.0816 9.92764 25.1941C9.8586 25.0822 9.74478 25.0057 9.61789 24.9722L4.5835 23.6442C4.45474 23.6107 4.31853 23.6219 4.2047 23.6853C3.61506 24.0154 2.90226 24.1254 2.20252 23.9371C0.767583 23.5584 -0.0758364 22.0981 0.314152 20.6676C0.702274 19.237 2.17639 18.3866 3.60946 18.7652C4.31106 18.9461 4.87086 19.39 5.2142 19.9644C5.28324 20.0782 5.39706 20.1565 5.52581 20.1901L19.5505 23.8923C19.6792 23.9277 19.793 24.0061 19.8602 24.1198C20.2054 24.6924 20.7633 25.1382 21.4649 25.3191C22.8999 25.6958 24.3721 24.8453 24.7621 23.4167C25.014 22.4879 24.7509 21.5516 24.1445 20.9007C23.8123 20.5445 23.3813 20.2759 22.8738 20.1472C22.3699 20.0148 21.8587 20.0278 21.3903 20.1733C21.2093 20.2311 21.0358 20.3057 20.8716 20.399C20.7559 20.4624 20.6197 20.4736 20.4928 20.44L0.394389 15.1413C0.129421 15.0705 -0.034785 14.8131 0.00626641 14.5426V14.5203L0.00999835 14.5109L0.0137303 14.4923L0.0211942 14.4904V14.4643L0.0174622 14.4587L0.0230602 14.4401L0.0286581 14.4307V14.4214V14.3953H0.034256L0.036122 14.3673H0.0417199V14.3505L0.0454518 14.3338L0.0491838 14.3244V14.3039V14.2983L0.0529157 14.2797L0.0547817 14.2722V14.2554L0.0622456 14.2442V14.2274L0.0697095 14.2088V14.1845L0.0753074 14.1808L0.0790393 14.1566V14.1491L0.0827713 14.1379L0.0865032 14.1211L0.0827713 14.1137L0.0921011 14.0857L0.0958331 14.0689L0.0976991 14.0596V14.0428L0.105163 14.0241V14.0148L0.110761 13.998L0.120091 13.9701V13.9607L0.123823 13.9514L0.125689 13.9328V13.9253L0.133153 13.8992L0.136884 13.8805L0.13875 13.8712V13.8563L0.146214 13.8376V13.8283L0.151812 13.8097L0.159276 13.7817L0.155544 13.7761L0.164874 13.763V13.7444V13.7388L0.172338 13.7108L0.17607 13.6922L0.179802 13.6828L0.183534 13.6642L0.187266 13.6549L0.190998 13.6455V13.6213L0.198462 13.5933L0.204059 13.5896V13.5747L0.211523 13.556V13.5467L0.217121 13.528L0.224585 13.5001L0.220853 13.4945L0.228317 13.4758V13.4665L0.235781 13.4534L0.241379 13.4348L0.237647 13.4292L0.248843 13.4068L0.245111 13.4012L0.250709 13.3826L0.252575 13.3732V13.3583L0.258173 13.3397L0.265637 13.3359V13.3117L0.271234 13.308L0.278698 13.2893V13.2651L0.28243 13.2464L0.288028 13.2427L0.289894 13.2166H0.297358L0.30109 13.1961L0.302956 13.1811V13.1718L0.31042 13.1532V13.1457L0.316018 13.127L0.321616 13.1233L0.325348 13.0991V13.0897L0.32908 13.0804L0.332812 13.0618L0.336544 13.0524L0.347739 13.0301C0.465296 12.5936 0.59778 12.1647 0.747057 11.7432L0.812366 11.5548C3.92481 3.11529 13.0401 -1.74511 21.896 0.595569C24.2882 1.22597 26.4359 2.32077 28.2515 3.75688C28.2795 3.77926 28.3056 3.80164 28.3299 3.82962C28.7143 4.26418 28.8822 4.87406 28.7198 5.46902C28.4567 6.42022 27.4678 6.98906 26.518 6.73914C25.5682 6.48922 24.5811 7.05994 24.3218 8.0074C24.0586 8.95672 24.624 9.93776 25.5794 10.1839L30.0036 11.3552C30.1305 11.3888 30.2686 11.3776 30.3824 11.3142C30.9721 10.9859 31.6867 10.8778 32.3902 11.0587C33.8251 11.4373 34.6723 12.9051 34.2786 14.3282C33.8905 15.7587 32.4163 16.6091 30.9833 16.2305C30.2817 16.0515 29.7219 15.6057 29.3785 15.0313C29.3095 14.9175 29.1957 14.8392 29.0669 14.8056L15.046 11.109C14.9173 11.0755 14.8034 10.9971 14.7363 10.8834C14.391 10.3089 13.8275 9.86688 13.1278 9.67665C11.6929 9.2999 10.215 10.1541 9.83061 11.579C9.5787 12.5078 9.84554 13.4497 10.4482 14.095C10.7804 14.4513 11.2114 14.7198 11.719 14.8485C12.2247 14.9884 12.7341 14.9679 13.2024 14.8224C13.3834 14.7646 13.557 14.69 13.7212 14.5986C13.8369 14.5333 13.9731 14.5221 14.1 14.5557L34.1983 19.8563ZM31.92 12.7857C31.446 12.6608 30.9553 12.9443 30.8191 13.4217C30.6903 13.8955 30.9721 14.3822 31.4498 14.5128C31.9312 14.6359 32.4219 14.3524 32.5507 13.8787C32.6832 13.3956 32.4014 12.9088 31.92 12.7857ZM2.66714 22.21C3.14483 22.3405 3.63558 22.0571 3.76247 21.5777C3.89682 21.1003 3.61506 20.6135 3.13364 20.4922C2.65595 20.3617 2.1652 20.6452 2.04018 21.1245C1.90396 21.6001 2.18572 22.0888 2.66714 22.21ZM13.2884 12.497C13.1596 12.971 12.667 13.2546 12.1874 13.1315C11.7079 13.0009 11.428 12.5138 11.5567 12.0399C11.6911 11.5622 12.1818 11.2786 12.6577 11.4036C13.1316 11.5305 13.4134 12.0175 13.2884 12.497ZM23.0246 22.9596C22.8996 23.4392 22.407 23.7228 21.9293 23.5922C21.4497 23.4709 21.168 22.982 21.3023 22.5062C21.4273 22.0266 21.9199 21.743 22.3976 21.8736C22.8772 21.9949 23.1589 22.4819 23.0246 22.9596Z" fill="#007BFF"/>
<path d="M47.4874 26.2472C46.1388 26.2472 44.8404 26.0663 43.596 25.7026C42.3516 25.3407 41.3509 24.8689 40.5957 24.2888L41.922 21.3402C42.6288 21.8568 43.4789 22.2783 44.4759 22.6084C45.4729 22.9385 46.4755 23.1045 47.4874 23.1045C48.2593 23.1045 48.8806 23.0243 49.3549 22.8621C49.8292 22.7017 50.1771 22.4872 50.404 22.2223C50.6291 21.9556 50.7407 21.646 50.7407 21.2917C50.7407 20.8422 50.564 20.4822 50.2105 20.2174C49.8571 19.9525 49.3865 19.7343 48.8006 19.5646C48.2147 19.3949 47.5766 19.2345 46.8847 19.0815C46.1946 18.9286 45.4989 18.744 44.7995 18.5258C44.1001 18.3075 43.4584 18.0185 42.8725 17.6548C42.2847 17.2929 41.8196 16.8173 41.4755 16.2298C41.1296 15.6423 40.9566 14.9038 40.9566 14.0179C40.9566 13.0518 41.2133 12.1696 41.7285 11.3732C42.2419 10.5768 43.025 9.9408 44.0778 9.46521C45.1288 8.98961 46.4513 8.75275 48.0417 8.75275C49.1019 8.75275 50.151 8.8833 51.1871 9.13882C52.2232 9.3962 53.1272 9.76735 53.8972 10.2504L52.6677 13.1991C51.9125 12.7645 51.1331 12.4381 50.3296 12.2199C49.526 12.0017 48.7559 11.8935 48.0156 11.8935C47.2753 11.8935 46.6261 11.9793 46.1611 12.1472C45.6942 12.3169 45.3538 12.5463 45.1362 12.8354C44.9186 13.1245 44.8107 13.4471 44.8107 13.8015C44.8107 14.2529 44.9874 14.6147 45.3408 14.8889C45.6942 15.163 46.1611 15.3756 46.7396 15.5286C47.3181 15.6815 47.9598 15.8344 48.6667 15.9874C49.3735 16.1403 50.071 16.3306 50.763 16.5562C51.4531 16.7819 52.0874 17.0673 52.6659 17.4142C53.2444 17.7611 53.715 18.2273 54.0758 18.8148C54.4367 19.4042 54.6171 20.1316 54.6171 21.0007C54.6171 21.9519 54.3548 22.821 53.834 23.61C53.3113 24.3989 52.5208 25.0349 51.4605 25.5179C50.4003 26.001 49.074 26.2434 47.4855 26.2434L47.4874 26.2472Z" fill="#F8F9FA"/>
<path d="M61.1502 22.8152H70.3298V25.9559H57.27V9.04529H70.0154V12.1861H61.1483V22.8152H61.1502ZM60.86 15.8342H68.9812V18.9022H60.86V15.8342Z" fill="#F8F9FA"/>
<path d="M73.438 25.9559V9.04529H80.7389C82.2474 9.04529 83.5495 9.29148 84.6413 9.78199C85.7332 10.2744 86.5777 10.9775 87.1711 11.8951C87.7645 12.8146 88.0621 13.9001 88.0621 15.1571C88.0621 16.4142 87.7645 17.5202 87.1711 18.4304C86.5777 19.3405 85.7332 20.0325 84.6413 20.5081C83.5495 20.9837 82.2474 21.2205 80.7389 21.2205H75.5827L77.3665 19.5289V25.9559H73.4399H73.438ZM77.3647 19.9635L75.5808 18.1021H80.5194C81.708 18.1021 82.6064 17.8447 83.2184 17.33C83.8285 16.8152 84.1335 16.0897 84.1335 15.1553C84.1335 14.2209 83.8285 13.4991 83.2184 12.9918C82.6083 12.4845 81.708 12.2308 80.5194 12.2308H75.5808L77.3647 10.3714V19.9635ZM84.1838 25.9559L79.9427 19.8198H84.1354L88.3764 25.9559H84.1838Z" fill="#F8F9FA"/>
<path d="M96.2306 25.9562L88.9297 9.0437H93.1707L99.5322 24.0221H97.0509L103.507 9.0437H107.386L100.085 25.9562H96.2306Z" fill="#F8F9FA"/>
<path d="M109.146 25.9559V9.04529H113.073V25.9578H109.146V25.9559Z" fill="#F8F9FA"/>
<path d="M125.239 26.2472C123.905 26.2472 122.678 26.029 121.552 25.5944C120.429 25.1598 119.448 24.5481 118.613 23.7592C117.778 22.9702 117.131 22.0433 116.673 20.9802C116.216 19.9171 115.987 18.757 115.987 17.5C115.987 16.2429 116.216 15.0642 116.673 14.0085C117.131 12.9548 117.778 12.0316 118.613 11.2426C119.448 10.4537 120.423 9.84009 121.541 9.40552C122.657 8.97096 123.881 8.75275 125.215 8.75275C126.548 8.75275 127.772 8.96723 128.888 9.39247C130.004 9.81957 130.981 10.4276 131.816 11.2165C132.651 12.0054 133.299 12.9324 133.756 13.9955C134.214 15.0586 134.443 16.2261 134.443 17.4981C134.443 18.7701 134.214 19.919 133.756 20.9895C133.299 22.0601 132.651 22.9908 131.816 23.7797C130.981 24.5686 130.004 25.1766 128.888 25.6037C127.772 26.0308 126.556 26.2434 125.239 26.2434V26.2472ZM125.215 22.9385C125.968 22.9385 126.664 22.8042 127.298 22.5394C127.932 22.2746 128.49 21.896 128.972 21.4036C129.454 20.9131 129.828 20.3405 130.094 19.6896C130.358 19.0368 130.492 18.3075 130.492 17.5018C130.492 16.6961 130.36 15.9669 130.094 15.316C129.828 14.6632 129.456 14.0925 128.972 13.6001C128.49 13.1077 127.932 12.7291 127.298 12.4643C126.664 12.1994 125.968 12.0651 125.215 12.0651C124.461 12.0651 123.76 12.1994 123.118 12.4643C122.477 12.7291 121.919 13.1077 121.444 13.6001C120.97 14.0925 120.602 14.6632 120.336 15.316C120.07 15.9687 119.938 16.6961 119.938 17.5018C119.938 18.3075 120.07 19.0368 120.336 19.6896C120.6 20.3405 120.97 20.9131 121.444 21.4036C121.919 21.896 122.477 22.2746 123.118 22.5394C123.76 22.8042 124.46 22.9385 125.215 22.9385Z" fill="#F8F9FA"/>
<path d="M140.877 25.9562V12.233H135.479V9.0437H150.178V12.233H144.782V25.9562H140.879H140.877Z" fill="#F8F9FA"/>
<path d="M157.84 26.2472C156.491 26.2472 155.193 26.0663 153.949 25.7026C152.704 25.3407 151.703 24.8689 150.948 24.2888L152.274 21.3402C152.981 21.8568 153.831 22.2783 154.828 22.6084C155.825 22.9385 156.828 23.1045 157.84 23.1045C158.612 23.1045 159.233 23.0243 159.707 22.8621C160.182 22.7017 160.53 22.4872 160.757 22.2223C160.982 21.9556 161.093 21.646 161.093 21.2917C161.093 20.8422 160.916 20.4822 160.563 20.2174C160.21 19.9525 159.739 19.7343 159.153 19.5646C158.567 19.3949 157.929 19.2345 157.237 19.0815C156.547 18.9286 155.851 18.744 155.152 18.5258C154.453 18.3075 153.811 18.0185 153.225 17.6548C152.637 17.2929 152.172 16.8173 151.828 16.2298C151.482 15.6423 151.309 14.9038 151.309 14.0179C151.309 13.0518 151.566 12.1696 152.081 11.3732C152.594 10.5768 153.378 9.9408 154.43 9.46521C155.481 8.98961 156.804 8.75275 158.394 8.75275C159.454 8.75275 160.504 8.8833 161.54 9.13882C162.576 9.3962 163.48 9.76735 164.25 10.2504L163.02 13.1991C162.265 12.7645 161.486 12.4381 160.682 12.2199C159.879 12.0017 159.108 11.8935 158.368 11.8935C157.628 11.8935 156.979 11.9793 156.514 12.1472C156.047 12.3169 155.706 12.5463 155.489 12.8354C155.271 13.1245 155.163 13.4471 155.163 13.8015C155.163 14.2529 155.34 14.6147 155.693 14.8889C156.047 15.163 156.514 15.3756 157.092 15.5286C157.671 15.6815 158.312 15.8344 159.019 15.9874C159.726 16.1403 160.424 16.3306 161.116 16.5562C161.806 16.7819 162.44 17.0673 163.018 17.4142C163.597 17.7611 164.068 18.2273 164.428 18.8148C164.789 19.4042 164.97 20.1316 164.97 21.0007C164.97 21.9519 164.707 22.821 164.187 23.61C163.664 24.3989 162.873 25.0349 161.813 25.5179C160.753 26.001 159.427 26.2434 157.838 26.2434L157.84 26.2472Z" fill="#F8F9FA"/>
</svg>
